# xmcd
#
# Track frame offsets:
#	150
#	16130
#	29613
#	45445
#	63439
#	78683
#	93281
#	110348
#	123052
#	141821
#	159739
#	176667
#	194478
#	208341
#	224688
#	238763
#	251092
#
# Disc length: 3546 seconds
#
# Revision: 2
# Processed by: cddbd v1.5.2PL0 Copyright (c) Steve Scherf et al.
# Submitted via: EasyCDDAExtractor 11.5.0.1
#
DISCID=f80dd811
DTITLE=Various Artist - NCT 081
DYEAR=2006
DGENRE=Country
TTITLE0=Rascal Flatts - What Hurts The Most
TTITLE1=Toby Keith - Get Drunk and Be Somebody
TTITLE2=Kenny Chesney - Living In Fast Forward
TTITLE3=Lonestar - I'll Die Tryin'
TTITLE4=Kenny Rogers - I Can't Unlove You
TTITLE5=Jo Dee Messina - Not Going Down
TTITLE6=Cross Canadian Ragweed - This Time Around
TTITLE7=Joe Nichols - Size Matters (Someday)
TTITLE8=Rhett Akins - Kiss My Country A**
TTITLE9=Keith Anderson - Everytime I Hear Your Name
TTITLE10=Gary Allan - Life Ain't Always Beautiful
TTITLE11=LeAnn Rimes - Something's Gotta Give
TTITLE12=Neal McCoy - The Last Of A Dying Breed
TTITLE13=Rodney Atkins - If You're Going Through Hell (Before The Devil Even K
TTITLE13=nows)
TTITLE14=Susan Haynes - Drinkin' In My Sunday Dress
TTITLE15=Reckless Kelly - These Tears
TTITLE16=John Pierce - I'd Still Have You
EXTD=
EXTT0=
EXTT1=
EXTT2=
EXTT3=
EXTT4=
EXTT5=
EXTT6=
EXTT7=
EXTT8=
EXTT9=
EXTT10=
EXTT11=
EXTT12=
EXTT13=
EXTT14=
EXTT15=
EXTT16=
PLAYORDER=
